<svg xmlns="http://www.w3.org/2000/svg" viewBox="0 0 32 32">
  <!-- Green rounded square background -->
  <rect width="32" height="32" rx="7" fill="#1D9E75"/>
  <!-- Bold white S using a path for crisp rendering at small sizes -->
  <path
    d="M21 10.5C21 9 19.5 8 16.5 8C13 8 11 9.8 11 12C11 14 12.5 15 15.5 15.8L17 16.2C19.2 16.8 20 17.6 20 18.8C20 20.2 18.5 21.2 16 21.2C13.5 21.2 11.8 20.2 11.5 18.5L10 19C10.5 21.5 13 23 16 23C19.8 23 22 21 22 18.5C22 16.2 20.5 15 17.5 14.2L16 13.8C14 13.2 13 12.5 13 11.5C13 10.2 14.3 9.5 16.5 9.5C18.5 9.5 19.5 10.3 19.5 11.3L21 10.5Z"
    fill="white"
  />
</svg>
